HIERARCHY
ROOT joint_0
{
	OFFSET 0.000000 0.000000 0.000000
	CHANNELS 6 Xposition Yposition Zposition Zrotation Yrotation Xrotation 
	JOINT joint_1
	{
		OFFSET 7.683380 1.521202 101.454956
		CHANNELS 3 Zrotation Yrotation Xrotation
		JOINT joint_2
		{
			OFFSET -4.816528 0.859650 92.807007
			CHANNELS 3 Zrotation Yrotation Xrotation
			JOINT joint_3
			{
				OFFSET -7.237778 1.114670 92.543091
				CHANNELS 3 Zrotation Yrotation Xrotation
				JOINT joint_4
				{
					OFFSET 0.479660 2.971886 127.844971
					CHANNELS 3 Zrotation Yrotation Xrotation
					JOINT joint_5
					{
						OFFSET 15.211349 9.937172 76.390015
						CHANNELS 3 Zrotation Yrotation Xrotation
						End Site
						{
							OFFSET 0.000000 0.000000 0.000000
						}
					}
				}
				JOINT joint_6
				{
					OFFSET 2.887054 -26.053230 72.331909
					CHANNELS 3 Zrotation Yrotation Xrotation
					JOINT joint_7
					{
						OFFSET 10.229767 -132.540291 -13.979004
						CHANNELS 3 Zrotation Yrotation Xrotation
						JOINT joint_8
						{
							OFFSET 17.695633 -10.988861 -262.204956
							CHANNELS 3 Zrotation Yrotation Xrotation
							JOINT joint_9
							{
								OFFSET 11.003433 -0.031860 -255.909973
								CHANNELS 3 Zrotation Yrotation Xrotation
								End Site
								{
									OFFSET 0.000000 0.000000 0.000000
								}
							}
						}
					}
				}
				JOINT joint_10
				{
					OFFSET -2.092239 29.348854 71.062988
					CHANNELS 3 Zrotation Yrotation Xrotation
					JOINT joint_11
					{
						OFFSET -11.853149 131.935837 -17.877075
						CHANNELS 3 Zrotation Yrotation Xrotation
						JOINT joint_12
						{
							OFFSET 14.084503 10.700203 -262.437012
							CHANNELS 3 Zrotation Yrotation Xrotation
							JOINT joint_13
							{
								OFFSET 48.202347 13.087273 -251.229919
								CHANNELS 3 Zrotation Yrotation Xrotation
								End Site
								{
									OFFSET 0.000000 0.000000 0.000000
								}
							}
						}
					}
				}
			}
		}
	}
	JOINT joint_14
	{
		OFFSET 4.150818 -83.296913 -102.580017
		CHANNELS 3 Zrotation Yrotation Xrotation
		JOINT joint_15
		{
			OFFSET -36.423187 -7.342392 -449.858948
			CHANNELS 3 Zrotation Yrotation Xrotation
			JOINT joint_16
			{
				OFFSET -41.100235 -7.280350 -426.202026
				CHANNELS 3 Zrotation Yrotation Xrotation
				JOINT joint_17
				{
					OFFSET 175.972961 13.159744 -75.358000
					CHANNELS 3 Zrotation Yrotation Xrotation
					End Site
					{
						OFFSET 0.000000 0.000000 0.000000
					}
				}
			}
		}
	}
	JOINT joint_18
	{
		OFFSET -9.062592 83.477568 -102.093018
		CHANNELS 3 Zrotation Yrotation Xrotation
		JOINT joint_19
		{
			OFFSET -39.145699 -6.092751 -449.645996
			CHANNELS 3 Zrotation Yrotation Xrotation
			JOINT joint_20
			{
				OFFSET -32.926178 -7.016375 -426.911980
				CHANNELS 3 Zrotation Yrotation Xrotation
				JOINT joint_21
				{
					OFFSET 176.289299 16.780729 -73.883997
					CHANNELS 3 Zrotation Yrotation Xrotation
					End Site
					{
						OFFSET 0.000000 0.000000 0.000000
					}
				}
			}
		}
	}
}
MOTION
Frames: 7
Frame Time: 0.016667
755.733398 -89.929611 1076.787964 -1.179400 -2.988663 -0.091736 -0.199621 5.113070 2.643942 -0.348781 -0.945881 -0.634638 -0.293420 1.053181 0.405848 -0.728467 1.626495 2.583335 0.000000 0.000000 0.000000 2.209869 -1.486326 3.148409 -0.277940 -1.950879 -6.272371 -0.052026 0.842755 -1.164783 0.000000 0.000000 0.000000 0.471168 -1.389598 -2.197202 -0.318875 -1.312672 -0.162750 -0.073649 8.724120 -3.080692 0.000000 0.000000 0.000000 1.555235 -2.118765 0.302896 1.492990 2.964514 0.116895 1.485085 1.729452 0.503709 0.000000 0.000000 0.000000 0.136401 -0.234448 0.434071 0.145672 3.596094 -0.263275 0.183447 -0.734988 0.146674 0.000000 0.000000 0.000000 
755.836792 -89.951050 1076.762939 -1.194492 -2.988607 -0.091205 -0.201745 5.122429 2.651181 -0.351391 -0.949491 -0.635267 -0.296035 1.056526 0.406371 -0.728336 1.627077 2.582399 0.000000 0.000000 0.000000 2.212287 -1.499625 3.160752 -0.278240 -1.966052 -6.287557 -0.051956 0.843423 -1.163067 0.000000 0.000000 0.000000 0.472346 -1.392860 -2.221104 -0.316964 -1.312967 -0.154900 -0.071746 8.724731 -3.073644 0.000000 0.000000 0.000000 1.559602 -2.115058 0.300880 1.496772 2.964514 0.122131 1.489161 1.732164 0.505249 0.000000 0.000000 0.000000 0.142696 -0.229509 0.436033 0.152118 3.603239 -0.263655 0.189829 -0.744239 0.150223 0.000000 0.000000 0.000000 
755.930664 -89.992401 1076.740967 -1.212369 -2.986304 -0.091151 -0.202338 5.129666 2.656912 -0.352445 -0.952737 -0.636442 -0.297032 1.060496 0.407180 -0.728550 1.625855 2.584372 0.000000 0.000000 0.000000 2.215209 -1.512655 3.176189 -0.278328 -1.980943 -6.300033 -0.052044 0.843304 -1.165050 0.000000 0.000000 0.000000 0.474026 -1.396542 -2.244701 -0.315422 -1.313668 -0.145275 -0.070541 8.722413 -3.069018 0.000000 0.000000 0.000000 1.564482 -2.115437 0.302804 1.501655 2.966028 0.123080 1.493924 1.734844 0.507082 0.000000 0.000000 0.000000 0.149493 -0.226771 0.440206 0.159308 3.609198 -0.264696 0.196849 -0.752057 0.153902 0.000000 0.000000 0.000000 
756.014954 -90.048546 1076.719971 -1.231956 -2.982967 -0.091290 -0.201725 5.136773 2.661777 -0.352311 -0.954986 -0.638690 -0.296726 1.063821 0.408068 -0.728923 1.624116 2.587478 0.000000 0.000000 0.000000 2.218127 -1.525624 3.194327 -0.278279 -1.995838 -6.310574 -0.052256 0.841922 -1.169938 0.000000 0.000000 0.000000 0.475285 -1.400710 -2.267564 -0.314169 -1.314843 -0.134983 -0.069817 8.717837 -3.065993 0.000000 0.000000 0.000000 1.569260 -2.117462 0.306943 1.506787 2.967069 0.121758 1.498696 1.738116 0.508874 0.000000 0.000000 0.000000 0.156865 -0.225136 0.445950 0.167277 3.614144 -0.266498 0.204546 -0.759355 0.157815 0.000000 0.000000 0.000000 
756.097717 -90.103012 1076.699951 -1.250180 -2.978468 -0.091396 -0.201167 5.143450 2.666677 -0.352223 -0.957495 -0.640851 -0.296364 1.067118 0.410387 -0.728643 1.621024 2.588141 0.000000 0.000000 0.000000 2.220651 -1.538408 3.211029 -0.278284 -2.010458 -6.320867 -0.052409 0.839948 -1.173461 0.000000 0.000000 0.000000 0.476561 -1.404932 -2.293243 -0.312780 -1.315770 -0.124368 -0.068919 8.713411 -3.061849 0.000000 0.000000 0.000000 1.574306 -2.120976 0.310668 1.512057 2.968710 0.121285 1.503699 1.741183 0.510780 0.000000 0.000000 0.000000 0.164227 -0.225611 0.451558 0.175174 3.620512 -0.268206 0.212212 -0.767325 0.161779 0.000000 0.000000 0.000000 
756.182678 -90.141457 1076.681030 -1.264945 -2.972242 -0.091468 -0.201681 5.149126 2.674000 -0.353273 -0.960409 -0.642025 -0.297350 1.069917 0.411035 -0.727575 1.616348 2.585858 0.000000 0.000000 0.000000 2.223741 -1.550718 3.225933 -0.278520 -2.024434 -6.331882 -0.052391 0.836418 -1.173062 0.000000 0.000000 0.000000 0.478409 -1.408309 -2.320769 -0.311072 -1.315847 -0.115198 -0.067447 8.710520 -3.055017 0.000000 0.000000 0.000000 1.579123 -2.126885 0.311286 1.516396 2.972112 0.125686 1.508308 1.743993 0.512536 0.000000 0.000000 0.000000 0.171015 -0.229783 0.456017 0.182262 3.630211 -0.269368 0.219211 -0.777232 0.165649 0.000000 0.000000 0.000000 
756.268311 -90.170441 1076.661987 -1.276713 -2.964875 -0.091235 -0.202798 5.154039 2.682678 -0.355003 -0.962348 -0.643575 -0.298965 1.071290 0.411523 -0.726276 1.610230 2.583325 0.000000 0.000000 0.000000 2.226543 -1.562522 3.239182 -0.278880 -2.037765 -6.342559 -0.052234 0.831898 -1.169488 0.000000 0.000000 0.000000 0.480122 -1.411228 -2.349507 -0.309233 -1.315436 -0.107318 -0.065662 8.709047 -3.046802 0.000000 0.000000 0.000000 1.583968 -2.134145 0.309707 1.520321 2.976497 0.133001 1.512826 1.746025 0.514312 0.000000 0.000000 0.000000 0.177505 -0.236501 0.459424 0.188871 3.642350 -0.270178 0.225828 -0.788581 0.169496 0.000000 0.000000 0.000000 
